<?xml version="1.0" encoding="UTF-8" standalone="no"?>
<!-- Created with Inkscape (http://www.inkscape.org/) -->
<svg xmlns:dc="http://purl.org/dc/elements/1.1/" xmlns:cc="http://web.resource.org/cc/" xmlns:rdf="http://www.w3.org/1999/02/22-rdf-syntax-ns#" xmlns:svg="http://www.w3.org/2000/svg" xmlns="http://www.w3.org/2000/svg" xmlns:sodipodi="http://sodipodi.sourceforge.net/DTD/sodipodi-0.dtd" xmlns:inkscape="http://www.inkscape.org/namespaces/inkscape" width="48" height="48" id="svg2" sodipodi:version="0.32" inkscape:version="0.45" version="1.0" sodipodi:docbase="/home/jspaleta/rpmbuild/SOURCES" sodipodi:docname="g3data-icon.svg" inkscape:output_extension="org.inkscape.output.svg.inkscape" inkscape:export-filename="/home/jspaleta/rpmbuild/SOURCES/g3data-icon.xpm" inkscape:export-xdpi="120" inkscape:export-ydpi="120" sodipodi:modified="TRUE">
  <defs id="defs4">
    <filter inkscape:collect="always" id="filter4347">
      <feGaussianBlur inkscape:collect="always" stdDeviation="0.26091797" id="feGaussianBlur4349"/>
    </filter>
    <filter inkscape:collect="always" id="filter4363">
      <feGaussianBlur inkscape:collect="always" stdDeviation="0.17" id="feGaussianBlur4365"/>
    </filter>
    <filter inkscape:collect="always" id="filter4373">
      <feGaussianBlur inkscape:collect="always" stdDeviation="0.25982568" id="feGaussianBlur4375"/>
    </filter>
  </defs>
  <sodipodi:namedview id="base" pagecolor="#ffffff" bordercolor="#666666" borderopacity="1.0" gridtolerance="50" guidetolerance="50" objecttolerance="10" inkscape:pageopacity="0.0" inkscape:pageshadow="2" inkscape:zoom="8.4791667" inkscape:cx="24" inkscape:cy="24" inkscape:document-units="px" inkscape:current-layer="layer1" width="48px" height="48px" showgrid="true" inkscape:grid-points="true" inkscape:guide-points="true" inkscape:window-width="776" inkscape:window-height="620" inkscape:window-x="466" inkscape:window-y="60" inkscape:grid-bbox="true" inkscape:object-paths="false"/>
  <metadata id="metadata7">
    <rdf:RDF>
      <cc:Work rdf:about="">
        <dc:format>image/svg+xml</dc:format>
        <dc:type rdf:resource="http://purl.org/dc/dcmitype/StillImage"/>
      </cc:Work>
    </rdf:RDF>
  </metadata>
  <g inkscape:label="Layer 1" inkscape:groupmode="layer" id="layer1">
    <rect style="fill: rgb(106, 106, 106); fill-opacity: 1; stroke: rgb(106, 106, 106); stroke-width: 1; stroke-linecap: butt; stroke-linejoin: miter; stroke-miterlimit: 4; stroke-dasharray: none; stroke-opacity: 1; filter: url(&quot;#filter4373&quot;);" id="rect4367" width="25.965136" height="24" x="3" y="4" ry="0"/>
    <rect style="fill: rgb(78, 189, 236); fill-opacity: 1; stroke: rgb(0, 0, 0); stroke-width: 1; stroke-linecap: butt; stroke-linejoin: miter; stroke-miterlimit: 4; stroke-dasharray: none; stroke-opacity: 1;" id="rect2160" width="25.965136" height="24" x="2.0348639" y="3.0000002" ry="0"/>
    <rect style="fill: rgb(234, 240, 197); fill-opacity: 1; stroke: none; stroke-width: 0.783449; stroke-linecap: butt; stroke-linejoin: miter; stroke-miterlimit: 4; stroke-dasharray: none; stroke-opacity: 1;" id="rect2210" width="22.216551" height="17.608274" x="4.3917241" y="5" ry="0"/>
    <path style="fill: none; fill-rule: evenodd; stroke: rgb(0, 52, 255); stroke-width: 0.5; stroke-linecap: butt; stroke-linejoin: miter; stroke-opacity: 1; stroke-miterlimit: 4; stroke-dasharray: none;" d="M 5.1279609,23.188 L 6.7507819,14.188 L 9.1850134,18.188 L 9.9964239,22.188 L 14.864887,10.188 L 18.921939,20.188 L 25.413223,9.188" id="path2162" sodipodi:nodetypes="ccccccc"/>
    <path style="fill: none; fill-rule: evenodd; stroke: rgb(255, 0, 0); stroke-width: 0.5; stroke-linecap: butt; stroke-linejoin: miter; stroke-opacity: 1; stroke-miterlimit: 4; stroke-dasharray: none;" d="M 4.7222557,18.688 L 6.3450767,9.688 L 13.242066,21.188 L 18.516234,15.688 L 22.978992,7.188" id="path2164" sodipodi:nodetypes="ccccc"/>
    <rect style="opacity: 1; fill: rgb(106, 106, 106); fill-opacity: 1; stroke: none; stroke-width: 0.324; stroke-linecap: butt; stroke-linejoin: miter; stroke-miterlimit: 4; stroke-dasharray: none; stroke-opacity: 1; filter: url(&quot;#filter4363&quot;);" id="rect3141" width="18" height="16" x="25" y="18"/>
    <path style="fill: none; fill-rule: evenodd; stroke: rgb(0, 0, 0); stroke-width: 0.50905; stroke-linecap: butt; stroke-linejoin: miter; stroke-miterlimit: 4; stroke-dasharray: none; stroke-opacity: 1;" d="M 4.2545248,5.0045248 L 4.2545248,22.995475 L 24.995475,22.995475" id="path4117"/>
    <rect style="opacity: 1; fill: rgb(255, 255, 255); fill-opacity: 1; stroke: rgb(13, 7, 7); stroke-width: 0.222278; stroke-linecap: butt; stroke-linejoin: miter; stroke-miterlimit: 4; stroke-dasharray: none; stroke-opacity: 1;" id="rect4112" width="18.064217" height="16.049599" x="23.963758" y="16.949139"/>
    <path sodipodi:type="arc" style="opacity: 1; fill: rgb(106, 106, 106); fill-opacity: 1; stroke: none; stroke-width: 0.5; stroke-linecap: butt; stroke-linejoin: miter; stroke-miterlimit: 4; stroke-dasharray: none; stroke-opacity: 1;" id="path4119" sodipodi:cx="-6.5" sodipodi:cy="13.5" sodipodi:rx="0.5" sodipodi:ry="0.5" d="M -6 13.5 A 0.5 0.5 0 1 1  -7,13.5 A 0.5 0.5 0 1 1  -6 13.5 z" transform="translate(12.8182, -4.13636)"/>
    <path sodipodi:type="arc" style="opacity: 1; fill: rgb(106, 106, 106); fill-opacity: 1; stroke: none; stroke-width: 0.5; stroke-linecap: butt; stroke-linejoin: miter; stroke-miterlimit: 4; stroke-dasharray: none; stroke-opacity: 1;" id="path4121" sodipodi:cx="-6.5" sodipodi:cy="13.5" sodipodi:rx="0.5" sodipodi:ry="0.5" d="M -6 13.5 A 0.5 0.5 0 1 1  -7,13.5 A 0.5 0.5 0 1 1  -6 13.5 z" transform="translate(13.2273, 0.272727)"/>
    <path sodipodi:type="arc" style="opacity: 1; fill: rgb(106, 106, 106); fill-opacity: 1; stroke: none; stroke-width: 0.5; stroke-linecap: butt; stroke-linejoin: miter; stroke-miterlimit: 4; stroke-dasharray: none; stroke-opacity: 1;" id="path4123" sodipodi:cx="-6.5" sodipodi:cy="13.5" sodipodi:rx="0.5" sodipodi:ry="0.5" d="M -6 13.5 A 0.5 0.5 0 1 1  -7,13.5 A 0.5 0.5 0 1 1  -6 13.5 z" transform="translate(19.7273, 8)"/>
    <path sodipodi:type="arc" style="opacity: 1; fill: rgb(106, 106, 106); fill-opacity: 1; stroke: none; stroke-width: 0.5; stroke-linecap: butt; stroke-linejoin: miter; stroke-miterlimit: 4; stroke-dasharray: none; stroke-opacity: 1;" id="path4125" sodipodi:cx="-6.5" sodipodi:cy="13.5" sodipodi:rx="0.5" sodipodi:ry="0.5" d="M -6 13.5 A 0.5 0.5 0 1 1  -7,13.5 A 0.5 0.5 0 1 1  -6 13.5 z" transform="translate(16.5909, 9)"/>
    <path sodipodi:type="arc" style="opacity: 1; fill: rgb(106, 106, 106); fill-opacity: 1; stroke: none; stroke-width: 0.5; stroke-linecap: butt; stroke-linejoin: miter; stroke-miterlimit: 4; stroke-dasharray: none; stroke-opacity: 1;" id="path4127" sodipodi:cx="-6.5" sodipodi:cy="13.5" sodipodi:rx="0.5" sodipodi:ry="0.5" d="M -6 13.5 A 0.5 0.5 0 1 1  -7,13.5 A 0.5 0.5 0 1 1  -6 13.5 z" transform="translate(21.5, -3.5)"/>
    <path sodipodi:type="arc" style="opacity: 1; fill: rgb(106, 106, 106); fill-opacity: 1; stroke: none; stroke-width: 0.5; stroke-linecap: butt; stroke-linejoin: miter; stroke-miterlimit: 4; stroke-dasharray: none; stroke-opacity: 1;" id="path4131" sodipodi:cx="-6.5" sodipodi:cy="13.5" sodipodi:rx="0.5" sodipodi:ry="0.5" d="M -6 13.5 A 0.5 0.5 0 1 1  -7,13.5 A 0.5 0.5 0 1 1  -6 13.5 z" transform="translate(25, 2.40909)"/>
    <path sodipodi:type="arc" style="opacity: 1; fill: rgb(106, 106, 106); fill-opacity: 1; stroke: none; stroke-width: 0.5; stroke-linecap: butt; stroke-linejoin: miter; stroke-miterlimit: 4; stroke-dasharray: none; stroke-opacity: 1;" id="path4133" sodipodi:cx="-6.5" sodipodi:cy="13.5" sodipodi:rx="0.5" sodipodi:ry="0.5" d="M -6 13.5 A 0.5 0.5 0 1 1  -7,13.5 A 0.5 0.5 0 1 1  -6 13.5 z" transform="translate(29.5, -6.5)"/>
    <path sodipodi:type="arc" style="opacity: 1; fill: rgb(106, 106, 106); fill-opacity: 1; stroke: none; stroke-width: 0.5; stroke-linecap: butt; stroke-linejoin: miter; stroke-miterlimit: 4; stroke-dasharray: none; stroke-opacity: 1;" id="path4135" sodipodi:cx="-6.5" sodipodi:cy="13.5" sodipodi:rx="0.5" sodipodi:ry="0.5" d="M -6 13.5 A 0.5 0.5 0 1 1  -7,13.5 A 0.5 0.5 0 1 1  -6 13.5 z" transform="translate(31.9091, -4.27273)"/>
    <path sodipodi:type="arc" style="opacity: 1; fill: rgb(106, 106, 106); fill-opacity: 1; stroke: none; stroke-width: 0.5; stroke-linecap: butt; stroke-linejoin: miter; stroke-miterlimit: 4; stroke-dasharray: none; stroke-opacity: 1;" id="path4137" sodipodi:cx="-6.5" sodipodi:cy="13.5" sodipodi:rx="0.5" sodipodi:ry="0.5" d="M -6 13.5 A 0.5 0.5 0 1 1  -7,13.5 A 0.5 0.5 0 1 1  -6 13.5 z" transform="translate(15.6818, 4.59091)"/>
    <path sodipodi:type="arc" style="opacity: 1; fill: rgb(106, 106, 106); fill-opacity: 1; stroke: none; stroke-width: 0.5; stroke-linecap: butt; stroke-linejoin: miter; stroke-miterlimit: 4; stroke-dasharray: none; stroke-opacity: 1;" id="path4139" sodipodi:cx="-6.5" sodipodi:cy="13.5" sodipodi:rx="0.5" sodipodi:ry="0.5" d="M -6 13.5 A 0.5 0.5 0 1 1  -7,13.5 A 0.5 0.5 0 1 1  -6 13.5 z" transform="translate(11.1364, 5.13636)"/>
    <path sodipodi:type="arc" style="opacity: 1; fill: rgb(106, 106, 106); fill-opacity: 1; stroke: none; stroke-width: 0.5; stroke-linecap: butt; stroke-linejoin: miter; stroke-miterlimit: 4; stroke-dasharray: none; stroke-opacity: 1;" id="path4141" sodipodi:cx="-6.5" sodipodi:cy="13.5" sodipodi:rx="0.5" sodipodi:ry="0.5" d="M -6 13.5 A 0.5 0.5 0 1 1  -7,13.5 A 0.5 0.5 0 1 1  -6 13.5 z" transform="translate(11.6818, 9.18182)"/>
    <path style="fill: none; fill-rule: evenodd; stroke: rgb(255, 0, 0); stroke-width: 0.5; stroke-linecap: butt; stroke-linejoin: miter; stroke-miterlimit: 4; stroke-dasharray: none; stroke-opacity: 1;" d="M 26.013399,19 C 28,19 28,19 28,19" id="path4143"/>
    <path style="fill: none; fill-rule: evenodd; stroke: rgb(255, 0, 0); stroke-width: 0.5; stroke-linecap: butt; stroke-linejoin: miter; stroke-miterlimit: 4; stroke-dasharray: none; stroke-opacity: 1;" d="M 29.1385,19 C 31,19 31,19 31,19" id="path4163"/>
    <path style="fill: none; fill-rule: evenodd; stroke: rgb(255, 0, 0); stroke-width: 0.5; stroke-linecap: butt; stroke-linejoin: miter; stroke-miterlimit: 4; stroke-dasharray: none; stroke-opacity: 1;" d="M 26.013399,21 C 28,21 28,21 28,21" id="path4191"/>
    <path style="fill: none; fill-rule: evenodd; stroke: rgb(255, 0, 0); stroke-width: 0.5; stroke-linecap: butt; stroke-linejoin: miter; stroke-miterlimit: 4; stroke-dasharray: none; stroke-opacity: 1;" d="M 29.1385,21 C 31,21 31,21 31,21" id="path4193"/>
    <path style="fill: none; fill-rule: evenodd; stroke: rgb(255, 0, 0); stroke-width: 0.5; stroke-linecap: butt; stroke-linejoin: miter; stroke-miterlimit: 4; stroke-dasharray: none; stroke-opacity: 1;" d="M 26.013399,23 C 28,23 28,23 28,23" id="path4195"/>
    <path style="fill: none; fill-rule: evenodd; stroke: rgb(255, 0, 0); stroke-width: 0.5; stroke-linecap: butt; stroke-linejoin: miter; stroke-miterlimit: 4; stroke-dasharray: none; stroke-opacity: 1;" d="M 29.1385,23 C 31,23 31,23 31,23" id="path4197"/>
    <path style="fill: none; fill-rule: evenodd; stroke: rgb(255, 0, 0); stroke-width: 0.5; stroke-linecap: butt; stroke-linejoin: miter; stroke-miterlimit: 4; stroke-dasharray: none; stroke-opacity: 1;" d="M 26.013399,25 C 28,25 28,25 28,25" id="path4199"/>
    <path style="fill: none; fill-rule: evenodd; stroke: rgb(255, 0, 0); stroke-width: 0.5; stroke-linecap: butt; stroke-linejoin: miter; stroke-miterlimit: 4; stroke-dasharray: none; stroke-opacity: 1;" d="M 29.1385,25 C 31,25 31,25 31,25" id="path4201"/>
    <path style="fill: none; fill-rule: evenodd; stroke: rgb(255, 0, 0); stroke-width: 0.5; stroke-linecap: butt; stroke-linejoin: miter; stroke-miterlimit: 4; stroke-dasharray: none; stroke-opacity: 1;" d="M 26.013399,27 C 28,27 28,27 28,27" id="path4203"/>
    <path style="fill: none; fill-rule: evenodd; stroke: rgb(255, 0, 0); stroke-width: 0.5; stroke-linecap: butt; stroke-linejoin: miter; stroke-miterlimit: 4; stroke-dasharray: none; stroke-opacity: 1;" d="M 29.1385,27 C 31,27 31,27 31,27" id="path4205"/>
    <path style="fill: none; fill-rule: evenodd; stroke: rgb(2, 0, 255); stroke-width: 0.5; stroke-linecap: butt; stroke-linejoin: miter; stroke-miterlimit: 4; stroke-dasharray: none; stroke-opacity: 1;" d="M 34.013399,19 C 36,19 36,19 36,19" id="path4207"/>
    <path style="fill: none; fill-rule: evenodd; stroke: rgb(2, 0, 255); stroke-width: 0.5; stroke-linecap: butt; stroke-linejoin: miter; stroke-miterlimit: 4; stroke-dasharray: none; stroke-opacity: 1;" d="M 37.1385,19 C 39,19 39,19 39,19" id="path4209"/>
    <path style="fill: none; fill-rule: evenodd; stroke: rgb(2, 0, 255); stroke-width: 0.5; stroke-linecap: butt; stroke-linejoin: miter; stroke-miterlimit: 4; stroke-dasharray: none; stroke-opacity: 1;" d="M 34,21 C 35.986601,21 35.986601,21 35.986601,21" id="path4211"/>
    <path style="fill: none; fill-rule: evenodd; stroke: rgb(2, 0, 255); stroke-width: 0.5; stroke-linecap: butt; stroke-linejoin: miter; stroke-miterlimit: 4; stroke-dasharray: none; stroke-opacity: 1;" d="M 37.125101,21 C 38.986601,21 38.986601,21 38.986601,21" id="path4213"/>
    <path style="fill: none; fill-rule: evenodd; stroke: rgb(2, 0, 255); stroke-width: 0.5; stroke-linecap: butt; stroke-linejoin: miter; stroke-miterlimit: 4; stroke-dasharray: none; stroke-opacity: 1;" d="M 34,23 C 35.986601,23 35.986601,23 35.986601,23" id="path4215"/>
    <path style="fill: none; fill-rule: evenodd; stroke: rgb(2, 0, 255); stroke-width: 0.5; stroke-linecap: butt; stroke-linejoin: miter; stroke-miterlimit: 4; stroke-dasharray: none; stroke-opacity: 1;" d="M 37.125101,23 C 38.986601,23 38.986601,23 38.986601,23" id="path4217"/>
    <path style="fill: none; fill-rule: evenodd; stroke: rgb(2, 0, 255); stroke-width: 0.5; stroke-linecap: butt; stroke-linejoin: miter; stroke-miterlimit: 4; stroke-dasharray: none; stroke-opacity: 1;" d="M 34,25 C 35.986601,25 35.986601,25 35.986601,25" id="path4219"/>
    <path style="fill: none; fill-rule: evenodd; stroke: rgb(2, 0, 255); stroke-width: 0.5; stroke-linecap: butt; stroke-linejoin: miter; stroke-miterlimit: 4; stroke-dasharray: none; stroke-opacity: 1;" d="M 37.125101,25 C 38.986601,25 38.986601,25 38.986601,25" id="path4221"/>
    <path style="fill: none; fill-rule: evenodd; stroke: rgb(2, 0, 255); stroke-width: 0.5; stroke-linecap: butt; stroke-linejoin: miter; stroke-miterlimit: 4; stroke-dasharray: none; stroke-opacity: 1;" d="M 34,27 C 35.986601,27 35.986601,27 35.986601,27" id="path4223"/>
    <path style="fill: none; fill-rule: evenodd; stroke: rgb(2, 0, 255); stroke-width: 0.5; stroke-linecap: butt; stroke-linejoin: miter; stroke-miterlimit: 4; stroke-dasharray: none; stroke-opacity: 1;" d="M 37.125101,27 C 38.986601,27 38.986601,27 38.986601,27" id="path4225"/>
    <path style="fill: none; fill-rule: evenodd; stroke: rgb(2, 0, 255); stroke-width: 0.5; stroke-linecap: butt; stroke-linejoin: miter; stroke-miterlimit: 4; stroke-dasharray: none; stroke-opacity: 1;" d="M 34,29 C 35.986601,29 35.986601,29 35.986601,29" id="path4227"/>
    <path style="fill: none; fill-rule: evenodd; stroke: rgb(2, 0, 255); stroke-width: 0.5; stroke-linecap: butt; stroke-linejoin: miter; stroke-miterlimit: 4; stroke-dasharray: none; stroke-opacity: 1;" d="M 37.125101,29 C 38.986601,29 38.986601,29 38.986601,29" id="path4229"/>
    <path style="fill: none; fill-rule: evenodd; stroke: rgb(2, 0, 255); stroke-width: 0.5; stroke-linecap: butt; stroke-linejoin: miter; stroke-miterlimit: 4; stroke-dasharray: none; stroke-opacity: 1;" d="M 34,31 C 35.986601,31 35.986601,31 35.986601,31" id="path4231"/>
    <path style="fill: none; fill-rule: evenodd; stroke: rgb(2, 0, 255); stroke-width: 0.5; stroke-linecap: butt; stroke-linejoin: miter; stroke-miterlimit: 4; stroke-dasharray: none; stroke-opacity: 1;" d="M 37.125101,31 C 38.986601,31 38.986601,31 38.986601,31" id="path4233"/>
    <path sodipodi:type="arc" style="opacity: 1; fill: rgb(106, 106, 106); fill-opacity: 1; stroke: none; stroke-width: 0.5; stroke-linecap: butt; stroke-linejoin: miter; stroke-miterlimit: 4; stroke-dasharray: none; stroke-opacity: 1;" id="path4253" sodipodi:cx="-6.5" sodipodi:cy="13.5" sodipodi:rx="0.5" sodipodi:ry="0.5" d="M -6 13.5 A 0.5 0.5 0 1 1  -7,13.5 A 0.5 0.5 0 1 1  -6 13.5 z" transform="translate(25.4091, 7)"/>
    <text xml:space="preserve" style="font-size: 12px; font-style: normal; font-weight: normal; fill: rgb(106, 106, 106); fill-opacity: 1; stroke: none; stroke-width: 1px; stroke-linecap: butt; stroke-linejoin: miter; stroke-opacity: 1; font-family: Bitstream Vera Sans; filter: url(&quot;#filter4347&quot;);" x="1" y="43" id="text4255"><tspan sodipodi:role="line" id="tspan4257" x="1" y="43">g3data</tspan></text>
    <text xml:space="preserve" style="font-size: 12px; font-style: normal; font-weight: normal; fill: rgb(78, 189, 236); fill-opacity: 1; stroke: none; stroke-width: 1px; stroke-linecap: butt; stroke-linejoin: miter; stroke-opacity: 1; font-family: Bitstream Vera Sans;" x="0.337891" y="42.5039" id="text4259"><tspan sodipodi:role="line" id="tspan4261" x="0.337891" y="42.5039">g3data</tspan></text>
  </g>
</svg>